<svg width="109" height="116" viewBox="0 0 109 116" fill="none" xmlns="http://www.w3.org/2000/svg">
<path d="M78.5 2.06253C84.6314 0.585868 87.6422 0.707075 92.5 2.06253C92.6695 5.89798 93.137 7.63891 95.5 9.06253L108.5 11.5625C108.478 23.8282 103.393 26.8061 91 29.5625C90.3561 36.9036 90.211 40.9804 91 48.0625C86.3921 47.5853 83.6202 47.6464 78.5 48.0625C73.0926 41.7334 69.736 39.0879 63.5 35.0625C65.3851 30.6301 65.831 28.6308 66 25.5625C65.5964 24.2469 64.896 23.4669 63.5 22.0625C68.4149 10.7226 73.1067 5.72209 78.5 2.06253Z" fill="#164232"/>
<path d="M90 73.0625V55.0625H78.5C78.5 55.0625 77.5 99.5625 78.5 104.563C79.5 109.563 84.3231 113.789 87.5 113.563V75.5625C88.9915 74.4245 89.4925 73.8917 90 73.0625Z" fill="#164232"/>
<path fill-rule="evenodd" clip-rule="evenodd" d="M38 30.0625L29.5 40.5C28.5 41.9375 28.5 44 29.5 45L48.5 61.0625C28.6565 81.3719 20.1039 91.7095 21 103.563C17.8184 107.312 15 106.063 12.5 103.563C11.5451 102.608 10.8758 101.864 10.3042 101.228C9.37922 100.2 8.70994 99.4561 7.5 98.5625C4.34361 98.4748 2.85496 99.1753 1 102.563C3.1512 109.335 5.3877 112.03 11.5 114.563H70.5C71.4847 106.121 67.5761 105.759 62.1272 105.255C60.5231 105.106 58.7855 104.946 57 104.563C56.8297 100.257 61.1132 96.9704 71.5 90.5625V50.0625L43.5 29.5625C42 28.5 40 28 38 30.0625ZM34.5 42.5625C36.6717 38.9481 38.0983 37.2011 41 34.5625L59 48.0625C58.0918 52.3295 56.7586 54.2434 52.5 56.5625L34.5 42.5625Z" fill="#164232"/>
<path d="M78 55.0625H78.5M78.5 55.0625H90V73.0625C89.4925 73.8917 88.9915 74.4245 87.5 75.5625V113.563C84.3231 113.789 79.5 109.563 78.5 104.563C77.5 99.5625 78.5 55.0625 78.5 55.0625ZM92.5 2.06253C87.6422 0.707075 84.6314 0.585868 78.5 2.06253C73.1067 5.72209 68.4149 10.7226 63.5 22.0625C64.896 23.4669 65.5964 24.2469 66 25.5625C65.831 28.6308 65.3851 30.6301 63.5 35.0625C69.736 39.0879 73.0926 41.7334 78.5 48.0625C83.6202 47.6464 86.3921 47.5853 91 48.0625C90.211 40.9804 90.3561 36.9036 91 29.5625C103.393 26.8061 108.478 23.8282 108.5 11.5625L95.5 9.06253C93.137 7.63891 92.6695 5.89798 92.5 2.06253ZM38 30.0625L29.5 40.5C28.5 41.9375 28.5 44 29.5 45L48.5 61.0625C28.6565 81.3719 20.1039 91.7095 21 103.563C17.8184 107.312 15 106.063 12.5 103.563C11.5451 102.608 10.8758 101.864 10.3042 101.228C9.37922 100.2 8.70994 99.4561 7.5 98.5625C4.34361 98.4748 2.85496 99.1753 1 102.563C3.1512 109.335 5.3877 112.03 11.5 114.563H70.5C71.4847 106.121 67.5761 105.759 62.1272 105.255C60.5231 105.106 58.7855 104.946 57 104.563C56.8297 100.257 61.1132 96.9704 71.5 90.5625V50.0625L43.5 29.5625C42 28.5 40 28 38 30.0625ZM41 34.5625C38.0983 37.2011 36.6717 38.9481 34.5 42.5625L52.5 56.5625C56.7586 54.2434 58.0918 52.3295 59 48.0625L41 34.5625Z" stroke="#164232"/>
</svg>
